<svg xmlns="http://www.w3.org/2000/svg" width="26" height="26" id="heart">
<g fill="#fff" transform="translate(5 -1030.698)">
<circle cx="8" cy="1043.698" r="13" fill="#ef4c45">
</circle><path fill="#df2209" d="M17.848 25.057a13 13 0 0 0 1.048-.471 13 13 0 0 0 1.127-.647 13 13 0 0 0 1.057-.755 13 13 0 0 0 .977-.858 13 13 0 0 0 .886-.951 13 13 0 0 0 .786-1.035 13 13 0 0 0 .68-1.108 13 13 0 0 0 .566-1.17 13 13 0 0 0 .445-1.22 13 13 0 0 0 .236-.93l-6.869-6.869-.002-.002a3.531 3.531 0 0 0-2.014-.998h-.001c-1.246-.179-2.605.26-3.608 1.264L13 9.469l-.162-.162-.002-.002c-.2-.2-.413-.379-.637-.534h-.002a4.459 4.459 0 0 0-.699-.396h-.002a4.196 4.196 0 0 0-1.5-.37c-1.016-.052-2.035.287-2.785 1.038-1.501 1.503-1.344 4.027.262 5.635l.513.513 4.662 4.666 5.2 5.2z" color="#000" font-family="sans-serif" font-weight="400" transform="translate(-5 1030.698)" 
style="line-height:normal;text-indent:0;text-align:start;text-decoration-line:none;text-decoration-style:solid;text-decoration-color:#000;text-transform:none;block-progression:tb;isolation:auto;mix-blend-mode:normal">
</path><path style="line-height:normal;text-indent:0;text-align:start;text-decoration-line:none;text-decoration-style:solid;text-decoration-color:#000;text-transform:none;block-progression:tb;isolation:auto;mix-blend-mode:normal" d="M4.996 2.004C3.98 1.95 2.961 2.29 2.211 3.04.71 4.544.867 7.068 2.473 8.676l.513.513 4.662 4.666a.5.5 0 0 0 .706 0l4.66-4.666.513-.513c1.606-1.608 1.762-4.132.26-5.635-1.501-1.503-4.02-1.343-5.625.264L8 3.467l-.162-.162C7.035 2.5 6.013 2.058 4.996 2.004Z" color="#000" font-family="sans-serif" font-weight="400" overflow="visible" transform="translate(0 1036.7)">
</path>
</g>
</svg>
